# xmcd
#
# Track frame offsets: 
#        150
#        14877
#        35205
#        52659
#        70131
#        87111
#        108309
#        127992
#        140779
#        159549
#
# Disc length: 2381 seconds
#
# Revision: 0
# Processed by: cddbd v1.5.1PL2 Copyright (c) Steve Scherf et al.
# Submitted via: ExactAudioCopy v0.95b3
#
DISCID=88094b0a
DTITLE=Vertigo - Vertigo 2
DYEAR=2006
DGENRE=Rock
TTITLE0=In The Blink Of An Eye
TTITLE1=All For You
TTITLE2=Hold Me
TTITLE3=Part Of Me
TTITLE4=Holy
TTITLE5=I Wanna Live Forever
TTITLE6=Save It All For Me
TTITLE7=Picking Up The Pieces
TTITLE8=Together
TTITLE9=There's A Reason
EXTD=
EXTT0=
EXTT1=
EXTT2=
EXTT3=
EXTT4=
EXTT5=
EXTT6=
EXTT7=
EXTT8=
EXTT9=
PLAYORDER=
